<svg xmlns="http://www.w3.org/2000/svg" width="16" height="16" viewBox="0 0 16 16">
<defs>
<linearGradient id="paper" x1="0" y1="0" x2=".35" y2="1"><stop offset="0" stop-color="#ffffff"/><stop offset="1" stop-color="#ebeef6"/></linearGradient>
<linearGradient id="red" x1="0" y1="0" x2=".35" y2="1"><stop offset="0" stop-color="#ff9e90"/><stop offset="1" stop-color="#f2353f"/></linearGradient>
<linearGradient id="teal" x1="0" y1="0" x2=".35" y2="1"><stop offset="0" stop-color="#8af5e8"/><stop offset="1" stop-color="#1fc8c3"/></linearGradient>
</defs>
<g fill="#1d1530" stroke="#1d1530" stroke-width="2" stroke-linejoin="round">
  <path d="M11 3 L13 3 L13 14 L4 14 L4 13Z"/>
</g>
<path d="M11 3 L13 3 L13 14 L4 14 L4 13Z" fill="url(#paper)"/>
<g fill="#1d1530" stroke="#1d1530" stroke-width="2" stroke-linejoin="round">
  <path d="M2 1 L12 1 L12 13 L2 13Z"/>
</g>
<path d="M2 1 L12 1 L12 13 L2 13Z" fill="url(#teal)"/>
<path d="M2 1 L4 1 L4 13 L2 13Z" fill="#0e8f99"/>
<path d="M4.5 1 L4.5 13" fill="none" stroke="#1d1530" stroke-width="1" stroke-linecap="butt" opacity="0.4"/>
<g fill="#1d1530" stroke="#1d1530" stroke-width="2" stroke-linejoin="round">
  <path d="M9 1 L11 1 L11 5 L10 4 L9 5Z"/>
</g>
<path d="M9 1 L11 1 L11 5 L10 4 L9 5Z" fill="url(#red)"/>
</svg>
