<svg xmlns="http://www.w3.org/2000/svg" width="16" height="16" viewBox="0 0 16 16">
<defs>
<linearGradient id="amber" x1="0" y1="0" x2=".35" y2="1"><stop offset="0" stop-color="#ffdc80"/><stop offset="1" stop-color="#ffa41f"/></linearGradient>
<linearGradient id="slate" x1="0" y1="0" x2=".35" y2="1"><stop offset="0" stop-color="#5d5778"/><stop offset="1" stop-color="#3a3452"/></linearGradient>
</defs>
<g fill="#1d1530" stroke="#1d1530" stroke-width="2" stroke-linejoin="round">
  <path d="M1 6 L14 6 L14 14 L1 14Z" transform="translate(1 1)"/>
  <path d="M1 6 L14 6 L14 14 L1 14Z"/>
</g>
<path d="M1 6 L14 6 L14 14 L1 14Z" fill="#1d1530" transform="translate(1 1)"/>
<path d="M1 6 L14 6 L14 14 L1 14Z" fill="url(#slate)"/>
<path d="M1 8 L4 8 L6 6 L3 6Z" fill="#ffffff"/>
<path d="M7 8 L10 8 L12 6 L9 6Z" fill="#ffffff"/>
<path d="M13 8 L14 8 L14 6 L14 6Z" fill="#ffffff"/>
<path d="M5.9 9 L9.5 11 L5.9 13Z" fill="#8af5e8"/>
<g fill="#1d1530" stroke="#1d1530" stroke-width="2" stroke-linejoin="round">
  <path d="M1 2 L13 1 L13.6 4 L1 5Z" transform="translate(1 1)"/>
  <path d="M1 2 L13 1 L13.6 4 L1 5Z"/>
</g>
<path d="M1 2 L13 1 L13.6 4 L1 5Z" fill="#1d1530" transform="translate(1 1)"/>
<path d="M1 2 L13 1 L13.6 4 L1 5Z" fill="url(#slate)"/>
<path d="M2 1.92 L4 1.75 L2.64 4.87 L0.54 5.04Z" fill="url(#amber)"/>
<path d="M6 1.58 L8 1.42 L6.84 4.54 L4.74 4.7Z" fill="url(#amber)"/>
<path d="M10 1.25 L12 1.08 L11.04 4.2 L8.94 4.37Z" fill="url(#amber)"/>
</svg>
