<svg xmlns="http://www.w3.org/2000/svg" width="32" height="32" viewBox="0 0 32 32">
<defs>
<linearGradient id="slate" x1="0" y1="0" x2=".35" y2="1"><stop offset="0" stop-color="#5d5778"/><stop offset="1" stop-color="#3a3452"/></linearGradient>
</defs>
<g fill="#1d1530" stroke="#1d1530" stroke-width="4" stroke-linejoin="round">
  <path d="M5 2 L17 2 L25 10 L25 27 L5 27Z" transform="translate(2 2)"/>
  <path d="M5 2 L17 2 L25 10 L25 27 L5 27Z" transform="translate(1 1)"/>
  <path d="M5 2 L17 2 L25 10 L25 27 L5 27Z"/>
</g>
<path d="M5 2 L17 2 L25 10 L25 27 L5 27Z" fill="#1d1530" transform="translate(2 2)"/>
<path d="M5 2 L17 2 L25 10 L25 27 L5 27Z" fill="#1d1530" transform="translate(1 1)"/>
<path d="M5 2 L17 2 L25 10 L25 27 L5 27Z" fill="url(#slate)"/>
<path d="M17 2 L17 10 L25 10Z" fill="#5d5778"/>
<path d="M17 2 L17 10 L25 10" fill="none" stroke="#1d1530" stroke-width="1" stroke-linecap="butt" opacity="0.45"/>
<path d="M11 5 L15 7 L11 9 L7 7Z" fill="#c3adff"/>
<path d="M7 7 L11 9 L11 13 L7 11Z" fill="#1fc8c3"/>
<path d="M15 7 L15 11 L11 13 L11 9Z" fill="#8457ff"/>
<path d="M9 12.5 L13 16.5 L9 20.5" fill="none" stroke="#d8ff85" stroke-width="2" stroke-linecap="round"/>
<path d="M15 19.5 L21 19.5" fill="none" stroke="#d8ff85" stroke-width="2" stroke-linecap="butt"/>
</svg>
