<svg xmlns="http://www.w3.org/2000/svg" width="32" height="32" viewBox="0 0 32 32">
<defs>
<linearGradient id="lime" x1="0" y1="0" x2=".35" y2="1"><stop offset="0" stop-color="#d8ff85"/><stop offset="1" stop-color="#8fdc1f"/></linearGradient>
<linearGradient id="paper" x1="0" y1="0" x2=".35" y2="1"><stop offset="0" stop-color="#ffffff"/><stop offset="1" stop-color="#ebeef6"/></linearGradient>
<linearGradient id="steel" x1="0" y1="0" x2=".35" y2="1"><stop offset="0" stop-color="#eef1f8"/><stop offset="1" stop-color="#b4bccf"/></linearGradient>
<linearGradient id="violet" x1="0" y1="0" x2=".35" y2="1"><stop offset="0" stop-color="#c3adff"/><stop offset="1" stop-color="#8457ff"/></linearGradient>
</defs>
<g fill="#1d1530" stroke="#1d1530" stroke-width="4" stroke-linejoin="round">
  <path d="M16 5 L27 5 L27 9 L16 9Z"/>
</g>
<path d="M16 5 L27 5 L27 9 L16 9Z" fill="url(#steel)"/>
<g fill="#1d1530" stroke="#1d1530" stroke-width="4" stroke-linejoin="round">
  <path d="M2 9 L28 9 L28 27 L2 27Z" transform="translate(2 2)"/>
  <path d="M2 9 L28 9 L28 27 L2 27Z" transform="translate(1 1)"/>
  <path d="M2 9 L28 9 L28 27 L2 27Z"/>
  <path d="M3 4 L15 4 L15 9 L3 9Z"/>
</g>
<path d="M2 9 L28 9 L28 27 L2 27Z" fill="#7d879f" transform="translate(2 2)"/>
<path d="M2 9 L28 9 L28 27 L2 27Z" fill="#7d879f" transform="translate(1 1)"/>
<path d="M2 9 L28 9 L28 27 L2 27Z" fill="url(#paper)"/>
<path d="M3 4 L15 4 L15 9 L3 9Z" fill="url(#violet)"/>
<path d="M3 8 L15 8 L15 10 L3 10Z" fill="#8457ff"/>
<path d="M2 9 L28 9 L28 11 L2 11Z" fill="#8457ff"/>
<g fill="#1d1530" stroke="#1d1530" stroke-width="4" stroke-linejoin="round">
  <path d="M16 22.5 A6.5 6.5 0 1 0 29 22.5 A6.5 6.5 0 1 0 16 22.5Z"/>
</g>
<path d="M16 22.5 A6.5 6.5 0 1 0 29 22.5 A6.5 6.5 0 1 0 16 22.5Z" fill="url(#lime)"/>
<path d="M18 21 L27 21 L27 24 L18 24Z" fill="#ffffff"/>
<path d="M21 18 L24 18 L24 27 L21 27Z" fill="#ffffff"/>
</svg>
