<svg xmlns="http://www.w3.org/2000/svg" width="32" height="32" viewBox="0 0 32 32">
<defs>
<linearGradient id="steel" x1="0" y1="0" x2=".35" y2="1"><stop offset="0" stop-color="#eef1f8"/><stop offset="1" stop-color="#b4bccf"/></linearGradient>
<linearGradient id="violet" x1="0" y1="0" x2=".35" y2="1"><stop offset="0" stop-color="#c3adff"/><stop offset="1" stop-color="#8457ff"/></linearGradient>
</defs>
<g fill="#1d1530" stroke="#1d1530" stroke-width="4" stroke-linejoin="round">
  <path d="M25.13 15.51 L27.62 18.13 L26.14 21.71 L22.52 21.8 L21.8 22.52 L21.71 26.14 L18.13 27.62 L15.51 25.13 L14.49 25.13 L11.87 27.62 L8.29 26.14 L8.2 22.52 L7.48 21.8 L3.86 21.71 L2.38 18.13 L4.87 15.51 L4.87 14.49 L2.38 11.87 L3.86 8.29 L7.48 8.2 L8.2 7.48 L8.29 3.86 L11.87 2.38 L14.49 4.87 L15.51 4.87 L18.13 2.38 L21.71 3.86 L21.8 7.48 L22.52 8.2 L26.14 8.29 L27.62 11.87 L25.13 14.49Z M10.32 15 A4.68 4.68 0 1 0 19.68 15 A4.68 4.68 0 1 0 10.32 15Z" fill-rule="evenodd" transform="translate(2 2)"/>
  <path d="M25.13 15.51 L27.62 18.13 L26.14 21.71 L22.52 21.8 L21.8 22.52 L21.71 26.14 L18.13 27.62 L15.51 25.13 L14.49 25.13 L11.87 27.62 L8.29 26.14 L8.2 22.52 L7.48 21.8 L3.86 21.71 L2.38 18.13 L4.87 15.51 L4.87 14.49 L2.38 11.87 L3.86 8.29 L7.48 8.2 L8.2 7.48 L8.29 3.86 L11.87 2.38 L14.49 4.87 L15.51 4.87 L18.13 2.38 L21.71 3.86 L21.8 7.48 L22.52 8.2 L26.14 8.29 L27.62 11.87 L25.13 14.49Z M10.32 15 A4.68 4.68 0 1 0 19.68 15 A4.68 4.68 0 1 0 10.32 15Z" fill-rule="evenodd" transform="translate(1 1)"/>
  <path d="M25.13 15.51 L27.62 18.13 L26.14 21.71 L22.52 21.8 L21.8 22.52 L21.71 26.14 L18.13 27.62 L15.51 25.13 L14.49 25.13 L11.87 27.62 L8.29 26.14 L8.2 22.52 L7.48 21.8 L3.86 21.71 L2.38 18.13 L4.87 15.51 L4.87 14.49 L2.38 11.87 L3.86 8.29 L7.48 8.2 L8.2 7.48 L8.29 3.86 L11.87 2.38 L14.49 4.87 L15.51 4.87 L18.13 2.38 L21.71 3.86 L21.8 7.48 L22.52 8.2 L26.14 8.29 L27.62 11.87 L25.13 14.49Z M10.32 15 A4.68 4.68 0 1 0 19.68 15 A4.68 4.68 0 1 0 10.32 15Z" fill-rule="evenodd"/>
</g>
<path d="M25.13 15.51 L27.62 18.13 L26.14 21.71 L22.52 21.8 L21.8 22.52 L21.71 26.14 L18.13 27.62 L15.51 25.13 L14.49 25.13 L11.87 27.62 L8.29 26.14 L8.2 22.52 L7.48 21.8 L3.86 21.71 L2.38 18.13 L4.87 15.51 L4.87 14.49 L2.38 11.87 L3.86 8.29 L7.48 8.2 L8.2 7.48 L8.29 3.86 L11.87 2.38 L14.49 4.87 L15.51 4.87 L18.13 2.38 L21.71 3.86 L21.8 7.48 L22.52 8.2 L26.14 8.29 L27.62 11.87 L25.13 14.49Z M10.32 15 A4.68 4.68 0 1 0 19.68 15 A4.68 4.68 0 1 0 10.32 15Z" fill-rule="evenodd" fill="#4f5870" transform="translate(2 2)"/>
<path d="M25.13 15.51 L27.62 18.13 L26.14 21.71 L22.52 21.8 L21.8 22.52 L21.71 26.14 L18.13 27.62 L15.51 25.13 L14.49 25.13 L11.87 27.62 L8.29 26.14 L8.2 22.52 L7.48 21.8 L3.86 21.71 L2.38 18.13 L4.87 15.51 L4.87 14.49 L2.38 11.87 L3.86 8.29 L7.48 8.2 L8.2 7.48 L8.29 3.86 L11.87 2.38 L14.49 4.87 L15.51 4.87 L18.13 2.38 L21.71 3.86 L21.8 7.48 L22.52 8.2 L26.14 8.29 L27.62 11.87 L25.13 14.49Z M10.32 15 A4.68 4.68 0 1 0 19.68 15 A4.68 4.68 0 1 0 10.32 15Z" fill-rule="evenodd" fill="#4f5870" transform="translate(1 1)"/>
<path d="M25.13 15.51 L27.62 18.13 L26.14 21.71 L22.52 21.8 L21.8 22.52 L21.71 26.14 L18.13 27.62 L15.51 25.13 L14.49 25.13 L11.87 27.62 L8.29 26.14 L8.2 22.52 L7.48 21.8 L3.86 21.71 L2.38 18.13 L4.87 15.51 L4.87 14.49 L2.38 11.87 L3.86 8.29 L7.48 8.2 L8.2 7.48 L8.29 3.86 L11.87 2.38 L14.49 4.87 L15.51 4.87 L18.13 2.38 L21.71 3.86 L21.8 7.48 L22.52 8.2 L26.14 8.29 L27.62 11.87 L25.13 14.49Z M10.32 15 A4.68 4.68 0 1 0 19.68 15 A4.68 4.68 0 1 0 10.32 15Z" fill-rule="evenodd" fill="url(#steel)"/>
<path d="M10.32 15 A4.68 4.68 0 1 0 19.68 15 A4.68 4.68 0 1 0 10.32 15Z" fill="none"/>
<path d="M8.82 15 A6.18 6.18 0 1 0 21.18 15 A6.18 6.18 0 1 0 8.82 15Z" fill="none" stroke="url(#violet)" stroke-width="2" stroke-linecap="round" stroke-linejoin="round"/>
</svg>
